solid 
   facet normal -1.000000e+00 0.000000e+00 0.000000e+00
      outer loop
         vertex -1.259482e+02 1.656550e+01 -3.904751e+00
         vertex -1.259482e+02 1.227261e+01 -7.197644e+00
         vertex -1.259482e+02 6.565503e+00 -3.904751e+00
      endloop
   endfacet
   facet normal -1.000000e+00 0.000000e+00 0.000000e+00
      outer loop
         vertex -1.259482e+02 1.227261e+01 -7.197644e+00
         vertex -1.259482e+02 1.156550e+01 -6.904751e+00
         vertex -1.259482e+02 6.565503e+00 -3.904751e+00
      endloop
   endfacet
   facet normal -1.000000e+00 -0.000000e+00 0.000000e+00
      outer loop
         vertex -1.259482e+02 6.565503e+00 -3.904751e+00
         vertex -1.259482e+02 1.085840e+01 -7.197644e+00
         vertex -1.259482e+02 6.565503e+00 -9.904751e+00
      endloop
   endfacet
   facet normal -1.000000e+00 -0.000000e+00 0.000000e+00
      outer loop
         vertex -1.259482e+02 1.085840e+01 -7.197644e+00
         vertex -1.259482e+02 1.056550e+01 -7.904751e+00
         vertex -1.259482e+02 6.565503e+00 -9.904751e+00
      endloop
   endfacet
   facet normal -1.000000e+00 0.000000e+00 -0.000000e+00
      outer loop
         vertex -1.259482e+02 6.565503e+00 -9.904751e+00
         vertex -1.259482e+02 1.156550e+01 -8.904751e+00
         vertex -1.259482e+02 1.656550e+01 -9.904751e+00
      endloop
   endfacet
   facet normal -1.000000e+00 0.000000e+00 -0.000000e+00
      outer loop
         vertex -1.259482e+02 1.156550e+01 -8.904751e+00
         vertex -1.259482e+02 1.227261e+01 -8.611857e+00
         vertex -1.259482e+02 1.656550e+01 -9.904751e+00
      endloop
   endfacet
   facet normal -1.000000e+00 0.000000e+00 0.000000e+00
      outer loop
         vertex -1.259482e+02 1.656550e+01 -9.904751e+00
         vertex -1.259482e+02 1.227261e+01 -8.611857e+00
         vertex -1.259482e+02 1.656550e+01 -3.904751e+00
      endloop
   endfacet
   facet normal -1.000000e+00 0.000000e+00 -0.000000e+00
      outer loop
         vertex -1.259482e+02 1.227261e+01 -8.611857e+00
         vertex -1.259482e+02 1.256550e+01 -7.904751e+00
         vertex -1.259482e+02 1.656550e+01 -3.904751e+00
      endloop
   endfacet
   facet normal -1.000000e+00 0.000000e+00 0.000000e+00
      outer loop
         vertex -1.259482e+02 1.656550e+01 -3.904751e+00
         vertex -1.259482e+02 1.256550e+01 -7.904751e+00
         vertex -1.259482e+02 1.227261e+01 -7.197644e+00
      endloop
   endfacet
   facet normal -1.000000e+00 0.000000e+00 0.000000e+00
      outer loop
         vertex -1.259482e+02 1.156550e+01 -8.904751e+00
         vertex -1.259482e+02 6.565503e+00 -9.904751e+00
         vertex -1.259482e+02 1.085840e+01 -8.611857e+00
      endloop
   endfacet
   facet normal -1.000000e+00 0.000000e+00 -0.000000e+00
      outer loop
         vertex -1.259482e+02 6.565503e+00 -9.904751e+00
         vertex -1.259482e+02 1.056550e+01 -7.904751e+00
         vertex -1.259482e+02 1.085840e+01 -8.611857e+00
      endloop
   endfacet
   facet normal -1.000000e+00 0.000000e+00 0.000000e+00
      outer loop
         vertex -1.259482e+02 1.085840e+01 -7.197644e+00
         vertex -1.259482e+02 6.565503e+00 -3.904751e+00
         vertex -1.259482e+02 1.156550e+01 -6.904751e+00
      endloop
   endfacet
   facet normal 1.000000e+00 0.000000e+00 -0.000000e+00
      outer loop
         vertex -1.209482e+02 6.565503e+00 -3.904751e+00
         vertex -1.209482e+02 1.085840e+01 -7.197644e+00
         vertex -1.209482e+02 1.656550e+01 -3.904751e+00
      endloop
   endfacet
   facet normal 1.000000e+00 0.000000e+00 -0.000000e+00
      outer loop
         vertex -1.209482e+02 1.085840e+01 -7.197644e+00
         vertex -1.209482e+02 1.156550e+01 -6.904751e+00
         vertex -1.209482e+02 1.656550e+01 -3.904751e+00
      endloop
   endfacet
   facet normal 1.000000e+00 -0.000000e+00 0.000000e+00
      outer loop
         vertex -1.209482e+02 1.656550e+01 -3.904751e+00
         vertex -1.209482e+02 1.227261e+01 -7.197644e+00
         vertex -1.209482e+02 1.656550e+01 -1.190475e+01
      endloop
   endfacet
   facet normal 1.000000e+00 -0.000000e+00 -0.000000e+00
      outer loop
         vertex -1.209482e+02 1.227261e+01 -7.197644e+00
         vertex -1.209482e+02 1.256550e+01 -7.904751e+00
         vertex -1.209482e+02 1.656550e+01 -1.190475e+01
      endloop
   endfacet
   facet normal 1.000000e+00 0.000000e+00 0.000000e+00
      outer loop
         vertex -1.209482e+02 1.656550e+01 -1.190475e+01
         vertex -1.209482e+02 1.227261e+01 -8.611857e+00
         vertex -1.209482e+02 6.565503e+00 -1.190475e+01
      endloop
   endfacet
   facet normal 1.000000e+00 -0.000000e+00 0.000000e+00
      outer loop
         vertex -1.209482e+02 1.227261e+01 -8.611857e+00
         vertex -1.209482e+02 1.156550e+01 -8.904751e+00
         vertex -1.209482e+02 6.565503e+00 -1.190475e+01
      endloop
   endfacet
   facet normal 1.000000e+00 0.000000e+00 0.000000e+00
      outer loop
         vertex -1.209482e+02 6.565503e+00 -1.190475e+01
         vertex -1.209482e+02 1.085840e+01 -8.611857e+00
         vertex -1.209482e+02 6.565503e+00 -3.904751e+00
      endloop
   endfacet
   facet normal 1.000000e+00 0.000000e+00 0.000000e+00
      outer loop
         vertex -1.209482e+02 1.085840e+01 -8.611857e+00
         vertex -1.209482e+02 1.056550e+01 -7.904751e+00
         vertex -1.209482e+02 6.565503e+00 -3.904751e+00
      endloop
   endfacet
   facet normal 1.000000e+00 0.000000e+00 -0.000000e+00
      outer loop
         vertex -1.209482e+02 6.565503e+00 -3.904751e+00
         vertex -1.209482e+02 1.056550e+01 -7.904751e+00
         vertex -1.209482e+02 1.085840e+01 -7.197644e+00
      endloop
   endfacet
   facet normal 1.000000e+00 0.000000e+00 0.000000e+00
      outer loop
         vertex -1.209482e+02 1.085840e+01 -8.611857e+00
         vertex -1.209482e+02 6.565503e+00 -1.190475e+01
         vertex -1.209482e+02 1.156550e+01 -8.904751e+00
      endloop
   endfacet
   facet normal 1.000000e+00 0.000000e+00 0.000000e+00
      outer loop
         vertex -1.209482e+02 1.227261e+01 -8.611857e+00
         vertex -1.209482e+02 1.656550e+01 -1.190475e+01
         vertex -1.209482e+02 1.256550e+01 -7.904751e+00
      endloop
   endfacet
   facet normal 1.000000e+00 0.000000e+00 0.000000e+00
      outer loop
         vertex -1.209482e+02 1.227261e+01 -7.197644e+00
         vertex -1.209482e+02 1.656550e+01 -3.904751e+00
         vertex -1.209482e+02 1.156550e+01 -6.904751e+00
      endloop
   endfacet
   facet normal -1.000000e+00 0.000000e+00 0.000000e+00
      outer loop
         vertex -2.683482e+02 1.656550e+01 -3.904751e+00
         vertex -2.683482e+02 1.227261e+01 -7.197644e+00
         vertex -2.683482e+02 6.565503e+00 -3.904751e+00
      endloop
   endfacet
   facet normal -1.000000e+00 0.000000e+00 0.000000e+00
      outer loop
         vertex -2.683482e+02 1.227261e+01 -7.197644e+00
         vertex -2.683482e+02 1.156550e+01 -6.904751e+00
         vertex -2.683482e+02 6.565503e+00 -3.904751e+00
      endloop
   endfacet
   facet normal -1.000000e+00 -0.000000e+00 0.000000e+00
      outer loop
         vertex -2.683482e+02 6.565503e+00 -3.904751e+00
         vertex -2.683482e+02 1.085840e+01 -7.197644e+00
         vertex -2.683482e+02 6.565503e+00 -1.190475e+01
      endloop
   endfacet
   facet normal -1.000000e+00 -0.000000e+00 0.000000e+00
      outer loop
         vertex -2.683482e+02 1.085840e+01 -7.197644e+00
         vertex -2.683482e+02 1.056550e+01 -7.904751e+00
         vertex -2.683482e+02 6.565503e+00 -1.190475e+01
      endloop
   endfacet
   facet normal -1.000000e+00 0.000000e+00 -0.000000e+00
      outer loop
         vertex -2.683482e+02 6.565503e+00 -1.190475e+01
         vertex -2.683482e+02 1.085840e+01 -8.611857e+00
         vertex -2.683482e+02 1.656550e+01 -1.190475e+01
      endloop
   endfacet
   facet normal -1.000000e+00 -0.000000e+00 -0.000000e+00
      outer loop
         vertex -2.683482e+02 1.085840e+01 -8.611857e+00
         vertex -2.683482e+02 1.156550e+01 -8.904751e+00
         vertex -2.683482e+02 1.656550e+01 -1.190475e+01
      endloop
   endfacet
   facet normal -1.000000e+00 0.000000e+00 0.000000e+00
      outer loop
         vertex -2.683482e+02 1.656550e+01 -1.190475e+01
         vertex -2.683482e+02 1.227261e+01 -8.611857e+00
         vertex -2.683482e+02 1.656550e+01 -3.904751e+00
      endloop
   endfacet
   facet normal -1.000000e+00 0.000000e+00 -0.000000e+00
      outer loop
         vertex -2.683482e+02 1.227261e+01 -8.611857e+00
         vertex -2.683482e+02 1.256550e+01 -7.904751e+00
         vertex -2.683482e+02 1.656550e+01 -3.904751e+00
      endloop
   endfacet
   facet normal -1.000000e+00 0.000000e+00 0.000000e+00
      outer loop
         vertex -2.683482e+02 1.656550e+01 -3.904751e+00
         vertex -2.683482e+02 1.256550e+01 -7.904751e+00
         vertex -2.683482e+02 1.227261e+01 -7.197644e+00
      endloop
   endfacet
   facet normal -1.000000e+00 0.000000e+00 0.000000e+00
      outer loop
         vertex -2.683482e+02 1.227261e+01 -8.611857e+00
         vertex -2.683482e+02 1.656550e+01 -1.190475e+01
         vertex -2.683482e+02 1.156550e+01 -8.904751e+00
      endloop
   endfacet
   facet normal -1.000000e+00 0.000000e+00 0.000000e+00
      outer loop
         vertex -2.683482e+02 1.085840e+01 -8.611857e+00
         vertex -2.683482e+02 6.565503e+00 -1.190475e+01
         vertex -2.683482e+02 1.056550e+01 -7.904751e+00
      endloop
   endfacet
   facet normal -1.000000e+00 0.000000e+00 0.000000e+00
      outer loop
         vertex -2.683482e+02 1.085840e+01 -7.197644e+00
         vertex -2.683482e+02 6.565503e+00 -3.904751e+00
         vertex -2.683482e+02 1.156550e+01 -6.904751e+00
      endloop
   endfacet
   facet normal 1.000000e+00 0.000000e+00 -0.000000e+00
      outer loop
         vertex -2.633482e+02 6.565503e+00 -3.904751e+00
         vertex -2.633482e+02 1.085840e+01 -7.197644e+00
         vertex -2.633482e+02 1.656550e+01 -3.904751e+00
      endloop
   endfacet
   facet normal 1.000000e+00 0.000000e+00 -0.000000e+00
      outer loop
         vertex -2.633482e+02 1.085840e+01 -7.197644e+00
         vertex -2.633482e+02 1.156550e+01 -6.904751e+00
         vertex -2.633482e+02 1.656550e+01 -3.904751e+00
      endloop
   endfacet
   facet normal 1.000000e+00 -0.000000e+00 0.000000e+00
      outer loop
         vertex -2.633482e+02 1.656550e+01 -3.904751e+00
         vertex -2.633482e+02 1.227261e+01 -7.197644e+00
         vertex -2.633482e+02 1.656550e+01 -9.904751e+00
      endloop
   endfacet
   facet normal 1.000000e+00 -0.000000e+00 -0.000000e+00
      outer loop
         vertex -2.633482e+02 1.227261e+01 -7.197644e+00
         vertex -2.633482e+02 1.256550e+01 -7.904751e+00
         vertex -2.633482e+02 1.656550e+01 -9.904751e+00
      endloop
   endfacet
   facet normal 1.000000e+00 0.000000e+00 0.000000e+00
      outer loop
         vertex -2.633482e+02 1.656550e+01 -9.904751e+00
         vertex -2.633482e+02 1.156550e+01 -8.904751e+00
         vertex -2.633482e+02 6.565503e+00 -9.904751e+00
      endloop
   endfacet
   facet normal 1.000000e+00 0.000000e+00 0.000000e+00
      outer loop
         vertex -2.633482e+02 1.156550e+01 -8.904751e+00
         vertex -2.633482e+02 1.085840e+01 -8.611857e+00
         vertex -2.633482e+02 6.565503e+00 -9.904751e+00
      endloop
   endfacet
   facet normal 1.000000e+00 0.000000e+00 0.000000e+00
      outer loop
         vertex -2.633482e+02 6.565503e+00 -9.904751e+00
         vertex -2.633482e+02 1.085840e+01 -8.611857e+00
         vertex -2.633482e+02 6.565503e+00 -3.904751e+00
      endloop
   endfacet
   facet normal 1.000000e+00 0.000000e+00 0.000000e+00
      outer loop
         vertex -2.633482e+02 1.085840e+01 -8.611857e+00
         vertex -2.633482e+02 1.056550e+01 -7.904751e+00
         vertex -2.633482e+02 6.565503e+00 -3.904751e+00
      endloop
   endfacet
   facet normal 1.000000e+00 0.000000e+00 -0.000000e+00
      outer loop
         vertex -2.633482e+02 6.565503e+00 -3.904751e+00
         vertex -2.633482e+02 1.056550e+01 -7.904751e+00
         vertex -2.633482e+02 1.085840e+01 -7.197644e+00
      endloop
   endfacet
   facet normal 1.000000e+00 0.000000e+00 0.000000e+00
      outer loop
         vertex -2.633482e+02 1.156550e+01 -8.904751e+00
         vertex -2.633482e+02 1.656550e+01 -9.904751e+00
         vertex -2.633482e+02 1.227261e+01 -8.611857e+00
      endloop
   endfacet
   facet normal 1.000000e+00 0.000000e+00 0.000000e+00
      outer loop
         vertex -2.633482e+02 1.656550e+01 -9.904751e+00
         vertex -2.633482e+02 1.256550e+01 -7.904751e+00
         vertex -2.633482e+02 1.227261e+01 -8.611857e+00
      endloop
   endfacet
   facet normal 1.000000e+00 0.000000e+00 0.000000e+00
      outer loop
         vertex -2.633482e+02 1.227261e+01 -7.197644e+00
         vertex -2.633482e+02 1.656550e+01 -3.904751e+00
         vertex -2.633482e+02 1.156550e+01 -6.904751e+00
      endloop
   endfacet
   facet normal -0.000000e+00 -3.826837e-01 -9.238794e-01
      outer loop
         vertex -2.683482e+02 1.227261e+01 -7.197644e+00
         vertex -2.633482e+02 1.227261e+01 -7.197644e+00
         vertex -2.633482e+02 1.156550e+01 -6.904751e+00
      endloop
   endfacet
   facet normal 0.000000e+00 -3.826837e-01 -9.238794e-01
      outer loop
         vertex -2.683482e+02 1.156550e+01 -6.904751e+00
         vertex -2.683482e+02 1.227261e+01 -7.197644e+00
         vertex -2.633482e+02 1.156550e+01 -6.904751e+00
      endloop
   endfacet
   facet normal -0.000000e+00 -9.238794e-01 -3.826837e-01
      outer loop
         vertex -2.683482e+02 1.256550e+01 -7.904751e+00
         vertex -2.633482e+02 1.256550e+01 -7.904751e+00
         vertex -2.633482e+02 1.227261e+01 -7.197644e+00
      endloop
   endfacet
   facet normal 0.000000e+00 -9.238794e-01 -3.826837e-01
      outer loop
         vertex -2.683482e+02 1.227261e+01 -7.197644e+00
         vertex -2.683482e+02 1.256550e+01 -7.904751e+00
         vertex -2.633482e+02 1.227261e+01 -7.197644e+00
      endloop
   endfacet
   facet normal 0.000000e+00 -9.238794e-01 3.826837e-01
      outer loop
         vertex -2.683482e+02 1.227261e+01 -8.611857e+00
         vertex -2.633482e+02 1.227261e+01 -8.611857e+00
         vertex -2.633482e+02 1.256550e+01 -7.904751e+00
      endloop
   endfacet
   facet normal 0.000000e+00 -9.238794e-01 3.826837e-01
      outer loop
         vertex -2.683482e+02 1.256550e+01 -7.904751e+00
         vertex -2.683482e+02 1.227261e+01 -8.611857e+00
         vertex -2.633482e+02 1.256550e+01 -7.904751e+00
      endloop
   endfacet
   facet normal 0.000000e+00 -3.826837e-01 9.238794e-01
      outer loop
         vertex -2.683482e+02 1.156550e+01 -8.904751e+00
         vertex -2.633482e+02 1.156550e+01 -8.904751e+00
         vertex -2.633482e+02 1.227261e+01 -8.611857e+00
      endloop
   endfacet
   facet normal 0.000000e+00 -3.826837e-01 9.238794e-01
      outer loop
         vertex -2.683482e+02 1.227261e+01 -8.611857e+00
         vertex -2.683482e+02 1.156550e+01 -8.904751e+00
         vertex -2.633482e+02 1.227261e+01 -8.611857e+00
      endloop
   endfacet
   facet normal 0.000000e+00 3.826837e-01 9.238794e-01
      outer loop
         vertex -2.683482e+02 1.085840e+01 -8.611857e+00
         vertex -2.633482e+02 1.085840e+01 -8.611857e+00
         vertex -2.633482e+02 1.156550e+01 -8.904751e+00
      endloop
   endfacet
   facet normal 0.000000e+00 3.826837e-01 9.238794e-01
      outer loop
         vertex -2.683482e+02 1.156550e+01 -8.904751e+00
         vertex -2.683482e+02 1.085840e+01 -8.611857e+00
         vertex -2.633482e+02 1.156550e+01 -8.904751e+00
      endloop
   endfacet
   facet normal 0.000000e+00 9.238794e-01 3.826837e-01
      outer loop
         vertex -2.683482e+02 1.056550e+01 -7.904751e+00
         vertex -2.633482e+02 1.056550e+01 -7.904751e+00
         vertex -2.633482e+02 1.085840e+01 -8.611857e+00
      endloop
   endfacet
   facet normal 0.000000e+00 9.238794e-01 3.826837e-01
      outer loop
         vertex -2.683482e+02 1.085840e+01 -8.611857e+00
         vertex -2.683482e+02 1.056550e+01 -7.904751e+00
         vertex -2.633482e+02 1.085840e+01 -8.611857e+00
      endloop
   endfacet
   facet normal 0.000000e+00 9.238794e-01 -3.826837e-01
      outer loop
         vertex -2.683482e+02 1.085840e+01 -7.197644e+00
         vertex -2.633482e+02 1.085840e+01 -7.197644e+00
         vertex -2.633482e+02 1.056550e+01 -7.904751e+00
      endloop
   endfacet
   facet normal 0.000000e+00 9.238794e-01 -3.826837e-01
      outer loop
         vertex -2.683482e+02 1.056550e+01 -7.904751e+00
         vertex -2.683482e+02 1.085840e+01 -7.197644e+00
         vertex -2.633482e+02 1.056550e+01 -7.904751e+00
      endloop
   endfacet
   facet normal 0.000000e+00 3.826837e-01 -9.238794e-01
      outer loop
         vertex -2.683482e+02 1.156550e+01 -6.904751e+00
         vertex -2.633482e+02 1.156550e+01 -6.904751e+00
         vertex -2.633482e+02 1.085840e+01 -7.197644e+00
      endloop
   endfacet
   facet normal 0.000000e+00 3.826837e-01 -9.238794e-01
      outer loop
         vertex -2.683482e+02 1.085840e+01 -7.197644e+00
         vertex -2.683482e+02 1.156550e+01 -6.904751e+00
         vertex -2.633482e+02 1.085840e+01 -7.197644e+00
      endloop
   endfacet
   facet normal -0.000000e+00 -3.826837e-01 -9.238794e-01
      outer loop
         vertex -1.259482e+02 1.227261e+01 -7.197644e+00
         vertex -1.209482e+02 1.227261e+01 -7.197644e+00
         vertex -1.209482e+02 1.156550e+01 -6.904751e+00
      endloop
   endfacet
   facet normal 0.000000e+00 -3.826837e-01 -9.238794e-01
      outer loop
         vertex -1.259482e+02 1.156550e+01 -6.904751e+00
         vertex -1.259482e+02 1.227261e+01 -7.197644e+00
         vertex -1.209482e+02 1.156550e+01 -6.904751e+00
      endloop
   endfacet
   facet normal -0.000000e+00 -9.238794e-01 -3.826837e-01
      outer loop
         vertex -1.259482e+02 1.256550e+01 -7.904751e+00
         vertex -1.209482e+02 1.256550e+01 -7.904751e+00
         vertex -1.209482e+02 1.227261e+01 -7.197644e+00
      endloop
   endfacet
   facet normal 0.000000e+00 -9.238794e-01 -3.826837e-01
      outer loop
         vertex -1.259482e+02 1.227261e+01 -7.197644e+00
         vertex -1.259482e+02 1.256550e+01 -7.904751e+00
         vertex -1.209482e+02 1.227261e+01 -7.197644e+00
      endloop
   endfacet
   facet normal 0.000000e+00 -9.238794e-01 3.826837e-01
      outer loop
         vertex -1.259482e+02 1.227261e+01 -8.611857e+00
         vertex -1.209482e+02 1.227261e+01 -8.611857e+00
         vertex -1.209482e+02 1.256550e+01 -7.904751e+00
      endloop
   endfacet
   facet normal 0.000000e+00 -9.238794e-01 3.826837e-01
      outer loop
         vertex -1.259482e+02 1.256550e+01 -7.904751e+00
         vertex -1.259482e+02 1.227261e+01 -8.611857e+00
         vertex -1.209482e+02 1.256550e+01 -7.904751e+00
      endloop
   endfacet
   facet normal 0.000000e+00 -3.826837e-01 9.238794e-01
      outer loop
         vertex -1.259482e+02 1.156550e+01 -8.904751e+00
         vertex -1.209482e+02 1.156550e+01 -8.904751e+00
         vertex -1.209482e+02 1.227261e+01 -8.611857e+00
      endloop
   endfacet
   facet normal 0.000000e+00 -3.826837e-01 9.238794e-01
      outer loop
         vertex -1.259482e+02 1.227261e+01 -8.611857e+00
         vertex -1.259482e+02 1.156550e+01 -8.904751e+00
         vertex -1.209482e+02 1.227261e+01 -8.611857e+00
      endloop
   endfacet
   facet normal 0.000000e+00 3.826837e-01 9.238794e-01
      outer loop
         vertex -1.259482e+02 1.085840e+01 -8.611857e+00
         vertex -1.209482e+02 1.085840e+01 -8.611857e+00
         vertex -1.209482e+02 1.156550e+01 -8.904751e+00
      endloop
   endfacet
   facet normal 0.000000e+00 3.826837e-01 9.238794e-01
      outer loop
         vertex -1.259482e+02 1.156550e+01 -8.904751e+00
         vertex -1.259482e+02 1.085840e+01 -8.611857e+00
         vertex -1.209482e+02 1.156550e+01 -8.904751e+00
      endloop
   endfacet
   facet normal 0.000000e+00 9.238794e-01 3.826837e-01
      outer loop
         vertex -1.259482e+02 1.056550e+01 -7.904751e+00
         vertex -1.209482e+02 1.056550e+01 -7.904751e+00
         vertex -1.209482e+02 1.085840e+01 -8.611857e+00
      endloop
   endfacet
   facet normal 0.000000e+00 9.238794e-01 3.826837e-01
      outer loop
         vertex -1.259482e+02 1.085840e+01 -8.611857e+00
         vertex -1.259482e+02 1.056550e+01 -7.904751e+00
         vertex -1.209482e+02 1.085840e+01 -8.611857e+00
      endloop
   endfacet
   facet normal 0.000000e+00 9.238794e-01 -3.826837e-01
      outer loop
         vertex -1.259482e+02 1.085840e+01 -7.197644e+00
         vertex -1.209482e+02 1.085840e+01 -7.197644e+00
         vertex -1.209482e+02 1.056550e+01 -7.904751e+00
      endloop
   endfacet
   facet normal 0.000000e+00 9.238794e-01 -3.826837e-01
      outer loop
         vertex -1.259482e+02 1.056550e+01 -7.904751e+00
         vertex -1.259482e+02 1.085840e+01 -7.197644e+00
         vertex -1.209482e+02 1.056550e+01 -7.904751e+00
      endloop
   endfacet
   facet normal 0.000000e+00 3.826837e-01 -9.238794e-01
      outer loop
         vertex -1.259482e+02 1.156550e+01 -6.904751e+00
         vertex -1.209482e+02 1.156550e+01 -6.904751e+00
         vertex -1.209482e+02 1.085840e+01 -7.197644e+00
      endloop
   endfacet
   facet normal 0.000000e+00 3.826837e-01 -9.238794e-01
      outer loop
         vertex -1.259482e+02 1.085840e+01 -7.197644e+00
         vertex -1.259482e+02 1.156550e+01 -6.904751e+00
         vertex -1.209482e+02 1.085840e+01 -7.197644e+00
      endloop
   endfacet
   facet normal -9.238798e-01 0.000000e+00 3.826827e-01
      outer loop
         vertex -1.265340e+02 1.656550e+01 -1.131896e+01
         vertex -1.265340e+02 6.565503e+00 -1.131896e+01
         vertex -1.259482e+02 6.565503e+00 -9.904751e+00
      endloop
   endfacet
   facet normal -9.238798e-01 0.000000e+00 3.826827e-01
      outer loop
         vertex -1.259482e+02 1.656550e+01 -9.904751e+00
         vertex -1.265340e+02 1.656550e+01 -1.131896e+01
         vertex -1.259482e+02 6.565503e+00 -9.904751e+00
      endloop
   endfacet
   facet normal -3.826833e-01 0.000000e+00 9.238796e-01
      outer loop
         vertex -1.279482e+02 1.656550e+01 -1.190475e+01
         vertex -1.279482e+02 6.565503e+00 -1.190475e+01
         vertex -1.265340e+02 6.565503e+00 -1.131896e+01
      endloop
   endfacet
   facet normal -3.826833e-01 0.000000e+00 9.238796e-01
      outer loop
         vertex -1.265340e+02 1.656550e+01 -1.131896e+01
         vertex -1.279482e+02 1.656550e+01 -1.190475e+01
         vertex -1.265340e+02 6.565503e+00 -1.131896e+01
      endloop
   endfacet
   facet normal 0.000000e+00 -1.000000e+00 0.000000e+00
      outer loop
         vertex -1.259482e+02 6.565503e+00 -3.904751e+00
         vertex -1.259482e+02 6.565503e+00 -9.904751e+00
         vertex -1.209482e+02 6.565503e+00 -3.904751e+00
      endloop
   endfacet
   facet normal 0.000000e+00 -1.000000e+00 0.000000e+00
      outer loop
         vertex -1.259482e+02 6.565503e+00 -9.904751e+00
         vertex -1.265340e+02 6.565503e+00 -1.131896e+01
         vertex -1.209482e+02 6.565503e+00 -3.904751e+00
      endloop
   endfacet
   facet normal 0.000000e+00 -1.000000e+00 0.000000e+00
      outer loop
         vertex -1.209482e+02 6.565503e+00 -3.904751e+00
         vertex -1.265340e+02 6.565503e+00 -1.131896e+01
         vertex -1.209482e+02 6.565503e+00 -1.190475e+01
      endloop
   endfacet
   facet normal 0.000000e+00 -1.000000e+00 0.000000e+00
      outer loop
         vertex -1.265340e+02 6.565503e+00 -1.131896e+01
         vertex -1.279482e+02 6.565503e+00 -1.190475e+01
         vertex -1.209482e+02 6.565503e+00 -1.190475e+01
      endloop
   endfacet
   facet normal -0.000000e+00 0.000000e+00 1.000000e+00
      outer loop
         vertex -1.209482e+02 1.656550e+01 -3.904751e+00
         vertex -1.259482e+02 1.656550e+01 -3.904751e+00
         vertex -1.259482e+02 6.565503e+00 -3.904751e+00
      endloop
   endfacet
   facet normal 0.000000e+00 0.000000e+00 1.000000e+00
      outer loop
         vertex -1.209482e+02 1.656550e+01 -3.904751e+00
         vertex -1.259482e+02 6.565503e+00 -3.904751e+00
         vertex -1.209482e+02 6.565503e+00 -3.904751e+00
      endloop
   endfacet
   facet normal -0.000000e+00 1.000000e+00 0.000000e+00
      outer loop
         vertex -1.209482e+02 1.656550e+01 -1.190475e+01
         vertex -1.265340e+02 1.656550e+01 -1.131896e+01
         vertex -1.209482e+02 1.656550e+01 -3.904751e+00
      endloop
   endfacet
   facet normal -0.000000e+00 1.000000e+00 0.000000e+00
      outer loop
         vertex -1.265340e+02 1.656550e+01 -1.131896e+01
         vertex -1.259482e+02 1.656550e+01 -9.904751e+00
         vertex -1.209482e+02 1.656550e+01 -3.904751e+00
      endloop
   endfacet
   facet normal 0.000000e+00 1.000000e+00 0.000000e+00
      outer loop
         vertex -1.209482e+02 1.656550e+01 -3.904751e+00
         vertex -1.259482e+02 1.656550e+01 -9.904751e+00
         vertex -1.259482e+02 1.656550e+01 -3.904751e+00
      endloop
   endfacet
   facet normal 0.000000e+00 1.000000e+00 0.000000e+00
      outer loop
         vertex -1.265340e+02 1.656550e+01 -1.131896e+01
         vertex -1.209482e+02 1.656550e+01 -1.190475e+01
         vertex -1.279482e+02 1.656550e+01 -1.190475e+01
      endloop
   endfacet
   facet normal 0.000000e+00 0.000000e+00 1.000000e+00
      outer loop
         vertex -2.606482e+02 -2.893450e+01 -1.190475e+01
         vertex -1.286482e+02 -2.893450e+01 -1.190475e+01
         vertex -2.632364e+02 -2.859376e+01 -1.190475e+01
      endloop
   endfacet
   facet normal 0.000000e+00 0.000000e+00 1.000000e+00
      outer loop
         vertex -1.286482e+02 -2.893450e+01 -1.190475e+01
         vertex -1.260600e+02 -2.859376e+01 -1.190475e+01
         vertex -2.632364e+02 -2.859376e+01 -1.190475e+01
      endloop
   endfacet
   facet normal 0.000000e+00 0.000000e+00 1.000000e+00
      outer loop
         vertex -2.632364e+02 -2.859376e+01 -1.190475e+01
         vertex -1.260600e+02 -2.859376e+01 -1.190475e+01
         vertex -2.656482e+02 -2.759475e+01 -1.190475e+01
      endloop
   endfacet
   facet normal 0.000000e+00 0.000000e+00 1.000000e+00
      outer loop
         vertex -1.260600e+02 -2.859376e+01 -1.190475e+01
         vertex -1.236482e+02 -2.759475e+01 -1.190475e+01
         vertex -2.656482e+02 -2.759475e+01 -1.190475e+01
      endloop
   endfacet
   facet normal 0.000000e+00 0.000000e+00 1.000000e+00
      outer loop
         vertex -2.656482e+02 -2.759475e+01 -1.190475e+01
         vertex -1.236482e+02 -2.759475e+01 -1.190475e+01
         vertex -2.677193e+02 -2.600557e+01 -1.190475e+01
      endloop
   endfacet
   facet normal 0.000000e+00 0.000000e+00 1.000000e+00
      outer loop
         vertex -1.236482e+02 -2.759475e+01 -1.190475e+01
         vertex -1.215771e+02 -2.600557e+01 -1.190475e+01
         vertex -2.677193e+02 -2.600557e+01 -1.190475e+01
      endloop
   endfacet
   facet normal 0.000000e+00 0.000000e+00 1.000000e+00
      outer loop
         vertex -2.677193e+02 -2.600557e+01 -1.190475e+01
         vertex -1.215771e+02 -2.600557e+01 -1.190475e+01
         vertex -2.693084e+02 -2.393450e+01 -1.190475e+01
      endloop
   endfacet
   facet normal 0.000000e+00 0.000000e+00 1.000000e+00
      outer loop
         vertex -1.215771e+02 -2.600557e+01 -1.190475e+01
         vertex -1.199879e+02 -2.393450e+01 -1.190475e+01
         vertex -2.693084e+02 -2.393450e+01 -1.190475e+01
      endloop
   endfacet
   facet normal 0.000000e+00 0.000000e+00 1.000000e+00
      outer loop
         vertex -2.693084e+02 -2.393450e+01 -1.190475e+01
         vertex -1.199879e+02 -2.393450e+01 -1.190475e+01
         vertex -2.703075e+02 -2.152269e+01 -1.190475e+01
      endloop
   endfacet
   facet normal 0.000000e+00 0.000000e+00 1.000000e+00
      outer loop
         vertex -1.199879e+02 -2.393450e+01 -1.190475e+01
         vertex -1.189889e+02 -2.152269e+01 -1.190475e+01
         vertex -2.703075e+02 -2.152269e+01 -1.190475e+01
      endloop
   endfacet
   facet normal 0.000000e+00 0.000000e+00 1.000000e+00
      outer loop
         vertex -2.703075e+02 -2.152269e+01 -1.190475e+01
         vertex -1.189889e+02 -2.152269e+01 -1.190475e+01
         vertex -2.706482e+02 -1.893450e+01 -1.190475e+01
      endloop
   endfacet
   facet normal 0.000000e+00 0.000000e+00 1.000000e+00
      outer loop
         vertex -1.189889e+02 -2.152269e+01 -1.190475e+01
         vertex -1.186482e+02 -1.893450e+01 -1.190475e+01
         vertex -2.706482e+02 -1.893450e+01 -1.190475e+01
      endloop
   endfacet
   facet normal 0.000000e+00 0.000000e+00 1.000000e+00
      outer loop
         vertex -2.706482e+02 -1.893450e+01 -1.190475e+01
         vertex -2.683482e+02 6.565503e+00 -1.190475e+01
         vertex -2.706482e+02 4.206550e+01 -1.190475e+01
      endloop
   endfacet
   facet normal 0.000000e+00 0.000000e+00 1.000000e+00
      outer loop
         vertex -2.683482e+02 6.565503e+00 -1.190475e+01
         vertex -2.683482e+02 1.656550e+01 -1.190475e+01
         vertex -2.706482e+02 4.206550e+01 -1.190475e+01
      endloop
   endfacet
   facet normal 0.000000e+00 0.000000e+00 1.000000e+00
      outer loop
         vertex -2.706482e+02 4.206550e+01 -1.190475e+01
         vertex -2.683482e+02 1.656550e+01 -1.190475e+01
         vertex -2.703075e+02 4.465369e+01 -1.190475e+01
      endloop
   endfacet
   facet normal 0.000000e+00 0.000000e+00 1.000000e+00
      outer loop
         vertex -2.683482e+02 1.656550e+01 -1.190475e+01
         vertex -2.613482e+02 1.656550e+01 -1.190475e+01
         vertex -2.703075e+02 4.465369e+01 -1.190475e+01
      endloop
   endfacet
   facet normal 0.000000e+00 0.000000e+00 1.000000e+00
      outer loop
         vertex -2.703075e+02 4.465369e+01 -1.190475e+01
         vertex -2.613482e+02 1.656550e+01 -1.190475e+01
         vertex -2.693084e+02 4.706550e+01 -1.190475e+01
      endloop
   endfacet
   facet normal 0.000000e+00 0.000000e+00 1.000000e+00
      outer loop
         vertex -2.683482e+02 6.565503e+00 -1.190475e+01
         vertex -2.706482e+02 -1.893450e+01 -1.190475e+01
         vertex -2.613482e+02 6.565503e+00 -1.190475e+01
      endloop
   endfacet
   facet normal 0.000000e+00 0.000000e+00 1.000000e+00
      outer loop
         vertex -2.706482e+02 -1.893450e+01 -1.190475e+01
         vertex -1.186482e+02 -1.893450e+01 -1.190475e+01
         vertex -2.613482e+02 6.565503e+00 -1.190475e+01
      endloop
   endfacet
   facet normal 0.000000e+00 0.000000e+00 1.000000e+00
      outer loop
         vertex -1.186482e+02 -1.893450e+01 -1.190475e+01
         vertex -1.279482e+02 6.565503e+00 -1.190475e+01
         vertex -2.613482e+02 6.565503e+00 -1.190475e+01
      endloop
   endfacet
   facet normal 0.000000e+00 0.000000e+00 1.000000e+00
      outer loop
         vertex -2.613482e+02 6.565503e+00 -1.190475e+01
         vertex -1.279482e+02 6.565503e+00 -1.190475e+01
         vertex -2.613482e+02 1.656550e+01 -1.190475e+01
      endloop
   endfacet
   facet normal 0.000000e+00 0.000000e+00 1.000000e+00
      outer loop
         vertex -1.279482e+02 6.565503e+00 -1.190475e+01
         vertex -1.279482e+02 1.656550e+01 -1.190475e+01
         vertex -2.613482e+02 1.656550e+01 -1.190475e+01
      endloop
   endfacet
   facet normal 0.000000e+00 0.000000e+00 1.000000e+00
      outer loop
         vertex -2.613482e+02 1.656550e+01 -1.190475e+01
         vertex -1.279482e+02 1.656550e+01 -1.190475e+01
         vertex -2.693084e+02 4.706550e+01 -1.190475e+01
      endloop
   endfacet
   facet normal 0.000000e+00 0.000000e+00 1.000000e+00
      outer loop
         vertex -1.279482e+02 1.656550e+01 -1.190475e+01
         vertex -1.209482e+02 1.656550e+01 -1.190475e+01
         vertex -2.693084e+02 4.706550e+01 -1.190475e+01
      endloop
   endfacet
   facet normal 0.000000e+00 0.000000e+00 1.000000e+00
      outer loop
         vertex -2.693084e+02 4.706550e+01 -1.190475e+01
         vertex -1.209482e+02 1.656550e+01 -1.190475e+01
         vertex -2.677193e+02 4.913657e+01 -1.190475e+01
      endloop
   endfacet
   facet normal 0.000000e+00 0.000000e+00 1.000000e+00
      outer loop
         vertex -1.209482e+02 6.565503e+00 -1.190475e+01
         vertex -1.186482e+02 -1.893450e+01 -1.190475e+01
         vertex -1.209482e+02 1.656550e+01 -1.190475e+01
      endloop
   endfacet
   facet normal 0.000000e+00 0.000000e+00 1.000000e+00
      outer loop
         vertex -1.186482e+02 -1.893450e+01 -1.190475e+01
         vertex -1.186482e+02 4.206550e+01 -1.190475e+01
         vertex -1.209482e+02 1.656550e+01 -1.190475e+01
      endloop
   endfacet
   facet normal 0.000000e+00 0.000000e+00 1.000000e+00
      outer loop
         vertex -1.186482e+02 4.206550e+01 -1.190475e+01
         vertex -1.189889e+02 4.465369e+01 -1.190475e+01
         vertex -1.209482e+02 1.656550e+01 -1.190475e+01
      endloop
   endfacet
   facet normal 0.000000e+00 0.000000e+00 1.000000e+00
      outer loop
         vertex -1.209482e+02 1.656550e+01 -1.190475e+01
         vertex -1.189889e+02 4.465369e+01 -1.190475e+01
         vertex -2.677193e+02 4.913657e+01 -1.190475e+01
      endloop
   endfacet
   facet normal 0.000000e+00 0.000000e+00 1.000000e+00
      outer loop
         vertex -1.189889e+02 4.465369e+01 -1.190475e+01
         vertex -1.199879e+02 4.706550e+01 -1.190475e+01
         vertex -2.677193e+02 4.913657e+01 -1.190475e+01
      endloop
   endfacet
   facet normal 0.000000e+00 0.000000e+00 1.000000e+00
      outer loop
         vertex -2.677193e+02 4.913657e+01 -1.190475e+01
         vertex -1.199879e+02 4.706550e+01 -1.190475e+01
         vertex -2.656482e+02 5.072576e+01 -1.190475e+01
      endloop
   endfacet
   facet normal 0.000000e+00 0.000000e+00 1.000000e+00
      outer loop
         vertex -1.199879e+02 4.706550e+01 -1.190475e+01
         vertex -1.215771e+02 4.913657e+01 -1.190475e+01
         vertex -2.656482e+02 5.072576e+01 -1.190475e+01
      endloop
   endfacet
   facet normal 0.000000e+00 0.000000e+00 1.000000e+00
      outer loop
         vertex -2.656482e+02 5.072576e+01 -1.190475e+01
         vertex -1.215771e+02 4.913657e+01 -1.190475e+01
         vertex -2.632364e+02 5.172476e+01 -1.190475e+01
      endloop
   endfacet
   facet normal 0.000000e+00 0.000000e+00 1.000000e+00
      outer loop
         vertex -1.215771e+02 4.913657e+01 -1.190475e+01
         vertex -1.236482e+02 5.072576e+01 -1.190475e+01
         vertex -2.632364e+02 5.172476e+01 -1.190475e+01
      endloop
   endfacet
   facet normal 0.000000e+00 0.000000e+00 1.000000e+00
      outer loop
         vertex -2.632364e+02 5.172476e+01 -1.190475e+01
         vertex -1.236482e+02 5.072576e+01 -1.190475e+01
         vertex -2.606482e+02 5.206550e+01 -1.190475e+01
      endloop
   endfacet
   facet normal 0.000000e+00 0.000000e+00 1.000000e+00
      outer loop
         vertex -1.236482e+02 5.072576e+01 -1.190475e+01
         vertex -1.260600e+02 5.172476e+01 -1.190475e+01
         vertex -2.606482e+02 5.206550e+01 -1.190475e+01
      endloop
   endfacet
   facet normal 0.000000e+00 0.000000e+00 1.000000e+00
      outer loop
         vertex -2.606482e+02 5.206550e+01 -1.190475e+01
         vertex -1.260600e+02 5.172476e+01 -1.190475e+01
         vertex -1.286482e+02 5.206550e+01 -1.190475e+01
      endloop
   endfacet
   facet normal 0.000000e+00 0.000000e+00 1.000000e+00
      outer loop
         vertex -1.279482e+02 6.565503e+00 -1.190475e+01
         vertex -1.186482e+02 -1.893450e+01 -1.190475e+01
         vertex -1.209482e+02 6.565503e+00 -1.190475e+01
      endloop
   endfacet
   facet normal -0.000000e+00 -1.000000e+00 0.000000e+00
      outer loop
         vertex -2.683482e+02 6.565503e+00 -1.190475e+01
         vertex -2.630803e+02 6.565503e+00 -1.090475e+01
         vertex -2.683482e+02 6.565503e+00 -3.904751e+00
      endloop
   endfacet
   facet normal -0.000000e+00 -1.000000e+00 -0.000000e+00
      outer loop
         vertex -2.630803e+02 6.565503e+00 -1.090475e+01
         vertex -2.633482e+02 6.565503e+00 -9.904751e+00
         vertex -2.683482e+02 6.565503e+00 -3.904751e+00
      endloop
   endfacet
   facet normal 0.000000e+00 -1.000000e+00 0.000000e+00
      outer loop
         vertex -2.683482e+02 6.565503e+00 -3.904751e+00
         vertex -2.633482e+02 6.565503e+00 -9.904751e+00
         vertex -2.633482e+02 6.565503e+00 -3.904751e+00
      endloop
   endfacet
   facet normal 0.000000e+00 -1.000000e+00 0.000000e+00
      outer loop
         vertex -2.630803e+02 6.565503e+00 -1.090475e+01
         vertex -2.683482e+02 6.565503e+00 -1.190475e+01
         vertex -2.623482e+02 6.565503e+00 -1.163680e+01
      endloop
   endfacet
   facet normal 0.000000e+00 -1.000000e+00 0.000000e+00
      outer loop
         vertex -2.683482e+02 6.565503e+00 -1.190475e+01
         vertex -2.613482e+02 6.565503e+00 -1.190475e+01
         vertex -2.623482e+02 6.565503e+00 -1.163680e+01
      endloop
   endfacet
   facet normal -0.000000e+00 0.000000e+00 1.000000e+00
      outer loop
         vertex -2.633482e+02 1.656550e+01 -3.904751e+00
         vertex -2.683482e+02 1.656550e+01 -3.904751e+00
         vertex -2.683482e+02 6.565503e+00 -3.904751e+00
      endloop
   endfacet
   facet normal 0.000000e+00 0.000000e+00 1.000000e+00
      outer loop
         vertex -2.633482e+02 1.656550e+01 -3.904751e+00
         vertex -2.683482e+02 6.565503e+00 -3.904751e+00
         vertex -2.633482e+02 6.565503e+00 -3.904751e+00
      endloop
   endfacet
   facet normal 0.000000e+00 1.000000e+00 -0.000000e+00
      outer loop
         vertex -2.633482e+02 1.656550e+01 -3.904751e+00
         vertex -2.633482e+02 1.656550e+01 -9.904751e+00
         vertex -2.683482e+02 1.656550e+01 -3.904751e+00
      endloop
   endfacet
   facet normal 0.000000e+00 1.000000e+00 0.000000e+00
      outer loop
         vertex -2.633482e+02 1.656550e+01 -9.904751e+00
         vertex -2.630803e+02 1.656550e+01 -1.090475e+01
         vertex -2.683482e+02 1.656550e+01 -3.904751e+00
      endloop
   endfacet
   facet normal 0.000000e+00 1.000000e+00 0.000000e+00
      outer loop
         vertex -2.683482e+02 1.656550e+01 -3.904751e+00
         vertex -2.630803e+02 1.656550e+01 -1.090475e+01
         vertex -2.683482e+02 1.656550e+01 -1.190475e+01
      endloop
   endfacet
   facet normal 0.000000e+00 1.000000e+00 0.000000e+00
      outer loop
         vertex -2.630803e+02 1.656550e+01 -1.090475e+01
         vertex -2.623482e+02 1.656550e+01 -1.163680e+01
         vertex -2.683482e+02 1.656550e+01 -1.190475e+01
      endloop
   endfacet
   facet normal 0.000000e+00 1.000000e+00 0.000000e+00
      outer loop
         vertex -2.683482e+02 1.656550e+01 -1.190475e+01
         vertex -2.623482e+02 1.656550e+01 -1.163680e+01
         vertex -2.613482e+02 1.656550e+01 -1.190475e+01
      endloop
   endfacet
   facet normal 9.659270e-01 0.000000e+00 2.588147e-01
      outer loop
         vertex -2.630803e+02 6.565503e+00 -1.090475e+01
         vertex -2.630803e+02 1.656550e+01 -1.090475e+01
         vertex -2.633482e+02 1.656550e+01 -9.904751e+00
      endloop
   endfacet
   facet normal 9.659270e-01 0.000000e+00 2.588147e-01
      outer loop
         vertex -2.633482e+02 6.565503e+00 -9.904751e+00
         vertex -2.630803e+02 6.565503e+00 -1.090475e+01
         vertex -2.633482e+02 1.656550e+01 -9.904751e+00
      endloop
   endfacet
   facet normal 7.071045e-01 0.000000e+00 7.071091e-01
      outer loop
         vertex -2.623482e+02 6.565503e+00 -1.163680e+01
         vertex -2.623482e+02 1.656550e+01 -1.163680e+01
         vertex -2.630803e+02 1.656550e+01 -1.090475e+01
      endloop
   endfacet
   facet normal 7.071045e-01 0.000000e+00 7.071091e-01
      outer loop
         vertex -2.630803e+02 6.565503e+00 -1.090475e+01
         vertex -2.623482e+02 6.565503e+00 -1.163680e+01
         vertex -2.630803e+02 1.656550e+01 -1.090475e+01
      endloop
   endfacet
   facet normal 2.588190e-01 0.000000e+00 9.659258e-01
      outer loop
         vertex -2.613482e+02 6.565503e+00 -1.190475e+01
         vertex -2.613482e+02 1.656550e+01 -1.190475e+01
         vertex -2.623482e+02 1.656550e+01 -1.163680e+01
      endloop
   endfacet
   facet normal 2.588190e-01 0.000000e+00 9.659258e-01
      outer loop
         vertex -2.623482e+02 6.565503e+00 -1.163680e+01
         vertex -2.613482e+02 6.565503e+00 -1.190475e+01
         vertex -2.623482e+02 1.656550e+01 -1.163680e+01
      endloop
   endfacet
   facet normal 9.914447e-01 -1.305271e-01 0.000000e+00
      outer loop
         vertex -1.186482e+02 -1.893450e+01 -1.190475e+01
         vertex -1.189889e+02 -2.152269e+01 -1.190475e+01
         vertex -1.189889e+02 -2.152269e+01 -1.390475e+01
      endloop
   endfacet
   facet normal 9.914447e-01 -1.305271e-01 0.000000e+00
      outer loop
         vertex -1.186482e+02 -1.893450e+01 -1.190475e+01
         vertex -1.189889e+02 -2.152269e+01 -1.390475e+01
         vertex -1.186482e+02 -1.893450e+01 -1.390475e+01
      endloop
   endfacet
   facet normal 9.238801e-01 -3.826822e-01 0.000000e+00
      outer loop
         vertex -1.189889e+02 -2.152269e+01 -1.190475e+01
         vertex -1.199879e+02 -2.393450e+01 -1.190475e+01
         vertex -1.199879e+02 -2.393450e+01 -1.390475e+01
      endloop
   endfacet
   facet normal 9.238801e-01 -3.826822e-01 0.000000e+00
      outer loop
         vertex -1.189889e+02 -2.152269e+01 -1.190475e+01
         vertex -1.199879e+02 -2.393450e+01 -1.390475e+01
         vertex -1.189889e+02 -2.152269e+01 -1.390475e+01
      endloop
   endfacet
   facet normal 7.933531e-01 -6.087618e-01 0.000000e+00
      outer loop
         vertex -1.199879e+02 -2.393450e+01 -1.190475e+01
         vertex -1.215771e+02 -2.600557e+01 -1.190475e+01
         vertex -1.215771e+02 -2.600557e+01 -1.390475e+01
      endloop
   endfacet
   facet normal 7.933531e-01 -6.087618e-01 0.000000e+00
      outer loop
         vertex -1.199879e+02 -2.393450e+01 -1.190475e+01
         vertex -1.215771e+02 -2.600557e+01 -1.390475e+01
         vertex -1.199879e+02 -2.393450e+01 -1.390475e+01
      endloop
   endfacet
   facet normal 6.087613e-01 -7.933534e-01 0.000000e+00
      outer loop
         vertex -1.215771e+02 -2.600557e+01 -1.190475e+01
         vertex -1.236482e+02 -2.759475e+01 -1.190475e+01
         vertex -1.236482e+02 -2.759475e+01 -1.390475e+01
      endloop
   endfacet
   facet normal 6.087613e-01 -7.933534e-01 0.000000e+00
      outer loop
         vertex -1.215771e+02 -2.600557e+01 -1.190475e+01
         vertex -1.236482e+02 -2.759475e+01 -1.390475e+01
         vertex -1.215771e+02 -2.600557e+01 -1.390475e+01
      endloop
   endfacet
   facet normal 3.826832e-01 -9.238796e-01 0.000000e+00
      outer loop
         vertex -1.236482e+02 -2.759475e+01 -1.190475e+01
         vertex -1.260600e+02 -2.859376e+01 -1.190475e+01
         vertex -1.260600e+02 -2.859376e+01 -1.390475e+01
      endloop
   endfacet
   facet normal 3.826832e-01 -9.238796e-01 0.000000e+00
      outer loop
         vertex -1.236482e+02 -2.759475e+01 -1.190475e+01
         vertex -1.260600e+02 -2.859376e+01 -1.390475e+01
         vertex -1.236482e+02 -2.759475e+01 -1.390475e+01
      endloop
   endfacet
   facet normal 1.305261e-01 -9.914449e-01 0.000000e+00
      outer loop
         vertex -1.260600e+02 -2.859376e+01 -1.190475e+01
         vertex -1.286482e+02 -2.893450e+01 -1.190475e+01
         vertex -1.286482e+02 -2.893450e+01 -1.390475e+01
      endloop
   endfacet
   facet normal 1.305261e-01 -9.914449e-01 0.000000e+00
      outer loop
         vertex -1.260600e+02 -2.859376e+01 -1.190475e+01
         vertex -1.286482e+02 -2.893450e+01 -1.390475e+01
         vertex -1.260600e+02 -2.859376e+01 -1.390475e+01
      endloop
   endfacet
   facet normal 1.000000e+00 0.000000e+00 0.000000e+00
      outer loop
         vertex -1.186482e+02 4.206550e+01 -1.390475e+01
         vertex -1.186482e+02 4.206550e+01 -1.190475e+01
         vertex -1.186482e+02 -1.893450e+01 -1.190475e+01
      endloop
   endfacet
   facet normal 1.000000e+00 0.000000e+00 0.000000e+00
      outer loop
         vertex -1.186482e+02 4.206550e+01 -1.390475e+01
         vertex -1.186482e+02 -1.893450e+01 -1.190475e+01
         vertex -1.186482e+02 -1.893450e+01 -1.390475e+01
      endloop
   endfacet
   facet normal 1.305253e-01 9.914450e-01 0.000000e+00
      outer loop
         vertex -1.286482e+02 5.206550e+01 -1.190475e+01
         vertex -1.260600e+02 5.172476e+01 -1.190475e+01
         vertex -1.260600e+02 5.172476e+01 -1.390475e+01
      endloop
   endfacet
   facet normal 1.305253e-01 9.914450e-01 0.000000e+00
      outer loop
         vertex -1.286482e+02 5.206550e+01 -1.190475e+01
         vertex -1.260600e+02 5.172476e+01 -1.390475e+01
         vertex -1.286482e+02 5.206550e+01 -1.390475e+01
      endloop
   endfacet
   facet normal 3.826832e-01 9.238796e-01 0.000000e+00
      outer loop
         vertex -1.260600e+02 5.172476e+01 -1.190475e+01
         vertex -1.236482e+02 5.072576e+01 -1.190475e+01
         vertex -1.236482e+02 5.072576e+01 -1.390475e+01
      endloop
   endfacet
   facet normal 3.826832e-01 9.238796e-01 0.000000e+00
      outer loop
         vertex -1.260600e+02 5.172476e+01 -1.190475e+01
         vertex -1.236482e+02 5.072576e+01 -1.390475e+01
         vertex -1.260600e+02 5.172476e+01 -1.390475e+01
      endloop
   endfacet
   facet normal 6.087618e-01 7.933531e-01 0.000000e+00
      outer loop
         vertex -1.236482e+02 5.072576e+01 -1.190475e+01
         vertex -1.215771e+02 4.913657e+01 -1.190475e+01
         vertex -1.215771e+02 4.913657e+01 -1.390475e+01
      endloop
   endfacet
   facet normal 6.087618e-01 7.933531e-01 0.000000e+00
      outer loop
         vertex -1.236482e+02 5.072576e+01 -1.190475e+01
         vertex -1.215771e+02 4.913657e+01 -1.390475e+01
         vertex -1.236482e+02 5.072576e+01 -1.390475e+01
      endloop
   endfacet
   facet normal 7.933531e-01 6.087618e-01 0.000000e+00
      outer loop
         vertex -1.215771e+02 4.913657e+01 -1.190475e+01
         vertex -1.199879e+02 4.706550e+01 -1.190475e+01
         vertex -1.199879e+02 4.706550e+01 -1.390475e+01
      endloop
   endfacet
   facet normal 7.933531e-01 6.087618e-01 0.000000e+00
      outer loop
         vertex -1.215771e+02 4.913657e+01 -1.190475e+01
         vertex -1.199879e+02 4.706550e+01 -1.390475e+01
         vertex -1.215771e+02 4.913657e+01 -1.390475e+01
      endloop
   endfacet
   facet normal 9.238799e-01 3.826824e-01 0.000000e+00
      outer loop
         vertex -1.199879e+02 4.706550e+01 -1.190475e+01
         vertex -1.189889e+02 4.465369e+01 -1.190475e+01
         vertex -1.189889e+02 4.465369e+01 -1.390475e+01
      endloop
   endfacet
   facet normal 9.238799e-01 3.826824e-01 0.000000e+00
      outer loop
         vertex -1.199879e+02 4.706550e+01 -1.190475e+01
         vertex -1.189889e+02 4.465369e+01 -1.390475e+01
         vertex -1.199879e+02 4.706550e+01 -1.390475e+01
      endloop
   endfacet
   facet normal 9.914448e-01 1.305270e-01 0.000000e+00
      outer loop
         vertex -1.189889e+02 4.465369e+01 -1.190475e+01
         vertex -1.186482e+02 4.206550e+01 -1.190475e+01
         vertex -1.186482e+02 4.206550e+01 -1.390475e+01
      endloop
   endfacet
   facet normal 9.914448e-01 1.305270e-01 0.000000e+00
      outer loop
         vertex -1.189889e+02 4.465369e+01 -1.190475e+01
         vertex -1.186482e+02 4.206550e+01 -1.390475e+01
         vertex -1.189889e+02 4.465369e+01 -1.390475e+01
      endloop
   endfacet
   facet normal -0.000000e+00 1.000000e+00 0.000000e+00
      outer loop
         vertex -2.606482e+02 5.206550e+01 -1.390475e+01
         vertex -2.606482e+02 5.206550e+01 -1.190475e+01
         vertex -1.286482e+02 5.206550e+01 -1.190475e+01
      endloop
   endfacet
   facet normal 0.000000e+00 1.000000e+00 0.000000e+00
      outer loop
         vertex -2.606482e+02 5.206550e+01 -1.390475e+01
         vertex -1.286482e+02 5.206550e+01 -1.190475e+01
         vertex -1.286482e+02 5.206550e+01 -1.390475e+01
      endloop
   endfacet
   facet normal -9.914455e-01 1.305212e-01 0.000000e+00
      outer loop
         vertex -2.706482e+02 4.206550e+01 -1.190475e+01
         vertex -2.703075e+02 4.465369e+01 -1.190475e+01
         vertex -2.703075e+02 4.465369e+01 -1.390475e+01
      endloop
   endfacet
   facet normal -9.914455e-01 1.305212e-01 0.000000e+00
      outer loop
         vertex -2.706482e+02 4.206550e+01 -1.190475e+01
         vertex -2.703075e+02 4.465369e+01 -1.390475e+01
         vertex -2.706482e+02 4.206550e+01 -1.390475e+01
      endloop
   endfacet
   facet normal -9.238768e-01 3.826899e-01 0.000000e+00
      outer loop
         vertex -2.703075e+02 4.465369e+01 -1.190475e+01
         vertex -2.693084e+02 4.706550e+01 -1.190475e+01
         vertex -2.693084e+02 4.706550e+01 -1.390475e+01
      endloop
   endfacet
   facet normal -9.238768e-01 3.826899e-01 0.000000e+00
      outer loop
         vertex -2.703075e+02 4.465369e+01 -1.190475e+01
         vertex -2.693084e+02 4.706550e+01 -1.390475e+01
         vertex -2.703075e+02 4.465369e+01 -1.390475e+01
      endloop
   endfacet
   facet normal -7.933559e-01 6.087581e-01 0.000000e+00
      outer loop
         vertex -2.693084e+02 4.706550e+01 -1.190475e+01
         vertex -2.677193e+02 4.913657e+01 -1.190475e+01
         vertex -2.677193e+02 4.913657e+01 -1.390475e+01
      endloop
   endfacet
   facet normal -7.933559e-01 6.087581e-01 0.000000e+00
      outer loop
         vertex -2.693084e+02 4.706550e+01 -1.190475e+01
         vertex -2.677193e+02 4.913657e+01 -1.390475e+01
         vertex -2.693084e+02 4.706550e+01 -1.390475e+01
      endloop
   endfacet
   facet normal -6.087604e-01 7.933542e-01 0.000000e+00
      outer loop
         vertex -2.677193e+02 4.913657e+01 -1.190475e+01
         vertex -2.656482e+02 5.072576e+01 -1.190475e+01
         vertex -2.656482e+02 5.072576e+01 -1.390475e+01
      endloop
   endfacet
   facet normal -6.087604e-01 7.933542e-01 0.000000e+00
      outer loop
         vertex -2.677193e+02 4.913657e+01 -1.190475e+01
         vertex -2.656482e+02 5.072576e+01 -1.390475e+01
         vertex -2.677193e+02 4.913657e+01 -1.390475e+01
      endloop
   endfacet
   facet normal -3.826842e-01 9.238792e-01 0.000000e+00
      outer loop
         vertex -2.656482e+02 5.072576e+01 -1.190475e+01
         vertex -2.632364e+02 5.172476e+01 -1.190475e+01
         vertex -2.632364e+02 5.172476e+01 -1.390475e+01
      endloop
   endfacet
   facet normal -3.826842e-01 9.238792e-01 0.000000e+00
      outer loop
         vertex -2.656482e+02 5.072576e+01 -1.190475e+01
         vertex -2.632364e+02 5.172476e+01 -1.390475e+01
         vertex -2.656482e+02 5.072576e+01 -1.390475e+01
      endloop
   endfacet
   facet normal -1.305253e-01 9.914450e-01 0.000000e+00
      outer loop
         vertex -2.632364e+02 5.172476e+01 -1.190475e+01
         vertex -2.606482e+02 5.206550e+01 -1.190475e+01
         vertex -2.606482e+02 5.206550e+01 -1.390475e+01
      endloop
   endfacet
   facet normal -1.305253e-01 9.914450e-01 0.000000e+00
      outer loop
         vertex -2.632364e+02 5.172476e+01 -1.190475e+01
         vertex -2.606482e+02 5.206550e+01 -1.390475e+01
         vertex -2.632364e+02 5.172476e+01 -1.390475e+01
      endloop
   endfacet
   facet normal -1.000000e+00 0.000000e+00 0.000000e+00
      outer loop
         vertex -2.706482e+02 -1.893450e+01 -1.390475e+01
         vertex -2.706482e+02 -1.893450e+01 -1.190475e+01
         vertex -2.706482e+02 4.206550e+01 -1.190475e+01
      endloop
   endfacet
   facet normal -1.000000e+00 0.000000e+00 -0.000000e+00
      outer loop
         vertex -2.706482e+02 -1.893450e+01 -1.390475e+01
         vertex -2.706482e+02 4.206550e+01 -1.190475e+01
         vertex -2.706482e+02 4.206550e+01 -1.390475e+01
      endloop
   endfacet
   facet normal -1.305261e-01 -9.914449e-01 -0.000000e+00
      outer loop
         vertex -2.606482e+02 -2.893450e+01 -1.190475e+01
         vertex -2.632364e+02 -2.859376e+01 -1.190475e+01
         vertex -2.632364e+02 -2.859376e+01 -1.390475e+01
      endloop
   endfacet
   facet normal -1.305261e-01 -9.914449e-01 0.000000e+00
      outer loop
         vertex -2.606482e+02 -2.893450e+01 -1.190475e+01
         vertex -2.632364e+02 -2.859376e+01 -1.390475e+01
         vertex -2.606482e+02 -2.893450e+01 -1.390475e+01
      endloop
   endfacet
   facet normal -3.826842e-01 -9.238792e-01 -0.000000e+00
      outer loop
         vertex -2.632364e+02 -2.859376e+01 -1.190475e+01
         vertex -2.656482e+02 -2.759475e+01 -1.190475e+01
         vertex -2.656482e+02 -2.759475e+01 -1.390475e+01
      endloop
   endfacet
   facet normal -3.826842e-01 -9.238792e-01 0.000000e+00
      outer loop
         vertex -2.632364e+02 -2.859376e+01 -1.190475e+01
         vertex -2.656482e+02 -2.759475e+01 -1.390475e+01
         vertex -2.632364e+02 -2.859376e+01 -1.390475e+01
      endloop
   endfacet
   facet normal -6.087599e-01 -7.933545e-01 -0.000000e+00
      outer loop
         vertex -2.656482e+02 -2.759475e+01 -1.190475e+01
         vertex -2.677193e+02 -2.600557e+01 -1.190475e+01
         vertex -2.677193e+02 -2.600557e+01 -1.390475e+01
      endloop
   endfacet
   facet normal -6.087599e-01 -7.933545e-01 0.000000e+00
      outer loop
         vertex -2.656482e+02 -2.759475e+01 -1.190475e+01
         vertex -2.677193e+02 -2.600557e+01 -1.390475e+01
         vertex -2.656482e+02 -2.759475e+01 -1.390475e+01
      endloop
   endfacet
   facet normal -7.933559e-01 -6.087581e-01 -0.000000e+00
      outer loop
         vertex -2.677193e+02 -2.600557e+01 -1.190475e+01
         vertex -2.693084e+02 -2.393450e+01 -1.190475e+01
         vertex -2.693084e+02 -2.393450e+01 -1.390475e+01
      endloop
   endfacet
   facet normal -7.933559e-01 -6.087581e-01 0.000000e+00
      outer loop
         vertex -2.677193e+02 -2.600557e+01 -1.190475e+01
         vertex -2.693084e+02 -2.393450e+01 -1.390475e+01
         vertex -2.677193e+02 -2.600557e+01 -1.390475e+01
      endloop
   endfacet
   facet normal -9.238770e-01 -3.826897e-01 -0.000000e+00
      outer loop
         vertex -2.693084e+02 -2.393450e+01 -1.190475e+01
         vertex -2.703075e+02 -2.152269e+01 -1.190475e+01
         vertex -2.703075e+02 -2.152269e+01 -1.390475e+01
      endloop
   endfacet
   facet normal -9.238770e-01 -3.826897e-01 0.000000e+00
      outer loop
         vertex -2.693084e+02 -2.393450e+01 -1.190475e+01
         vertex -2.703075e+02 -2.152269e+01 -1.390475e+01
         vertex -2.693084e+02 -2.393450e+01 -1.390475e+01
      endloop
   endfacet
   facet normal -9.914455e-01 -1.305213e-01 -0.000000e+00
      outer loop
         vertex -2.703075e+02 -2.152269e+01 -1.190475e+01
         vertex -2.706482e+02 -1.893450e+01 -1.190475e+01
         vertex -2.706482e+02 -1.893450e+01 -1.390475e+01
      endloop
   endfacet
   facet normal -9.914455e-01 -1.305213e-01 0.000000e+00
      outer loop
         vertex -2.703075e+02 -2.152269e+01 -1.190475e+01
         vertex -2.706482e+02 -1.893450e+01 -1.390475e+01
         vertex -2.703075e+02 -2.152269e+01 -1.390475e+01
      endloop
   endfacet
   facet normal -0.000000e+00 -1.000000e+00 -0.000000e+00
      outer loop
         vertex -1.286482e+02 -2.893450e+01 -1.390475e+01
         vertex -1.286482e+02 -2.893450e+01 -1.190475e+01
         vertex -2.606482e+02 -2.893450e+01 -1.190475e+01
      endloop
   endfacet
   facet normal 0.000000e+00 -1.000000e+00 0.000000e+00
      outer loop
         vertex -1.286482e+02 -2.893450e+01 -1.390475e+01
         vertex -2.606482e+02 -2.893450e+01 -1.190475e+01
         vertex -2.606482e+02 -2.893450e+01 -1.390475e+01
      endloop
   endfacet
   facet normal 0.000000e+00 0.000000e+00 -1.000000e+00
      outer loop
         vertex -1.260600e+02 -2.859376e+01 -1.390475e+01
         vertex -1.286482e+02 -2.893450e+01 -1.390475e+01
         vertex -1.236482e+02 -2.759475e+01 -1.390475e+01
      endloop
   endfacet
   facet normal 0.000000e+00 0.000000e+00 -1.000000e+00
      outer loop
         vertex -1.286482e+02 -2.893450e+01 -1.390475e+01
         vertex -2.606482e+02 -2.893450e+01 -1.390475e+01
         vertex -1.236482e+02 -2.759475e+01 -1.390475e+01
      endloop
   endfacet
   facet normal 0.000000e+00 0.000000e+00 -1.000000e+00
      outer loop
         vertex -1.236482e+02 -2.759475e+01 -1.390475e+01
         vertex -2.606482e+02 -2.893450e+01 -1.390475e+01
         vertex -1.215771e+02 -2.600557e+01 -1.390475e+01
      endloop
   endfacet
   facet normal 0.000000e+00 0.000000e+00 -1.000000e+00
      outer loop
         vertex -2.606482e+02 -2.893450e+01 -1.390475e+01
         vertex -2.632364e+02 -2.859376e+01 -1.390475e+01
         vertex -1.215771e+02 -2.600557e+01 -1.390475e+01
      endloop
   endfacet
   facet normal 0.000000e+00 0.000000e+00 -1.000000e+00
      outer loop
         vertex -1.215771e+02 -2.600557e+01 -1.390475e+01
         vertex -2.632364e+02 -2.859376e+01 -1.390475e+01
         vertex -1.199879e+02 -2.393450e+01 -1.390475e+01
      endloop
   endfacet
   facet normal 0.000000e+00 0.000000e+00 -1.000000e+00
      outer loop
         vertex -2.632364e+02 -2.859376e+01 -1.390475e+01
         vertex -2.656482e+02 -2.759475e+01 -1.390475e+01
         vertex -1.199879e+02 -2.393450e+01 -1.390475e+01
      endloop
   endfacet
   facet normal 0.000000e+00 0.000000e+00 -1.000000e+00
      outer loop
         vertex -1.199879e+02 -2.393450e+01 -1.390475e+01
         vertex -2.656482e+02 -2.759475e+01 -1.390475e+01
         vertex -1.189889e+02 -2.152269e+01 -1.390475e+01
      endloop
   endfacet
   facet normal 0.000000e+00 0.000000e+00 -1.000000e+00
      outer loop
         vertex -2.656482e+02 -2.759475e+01 -1.390475e+01
         vertex -2.677193e+02 -2.600557e+01 -1.390475e+01
         vertex -1.189889e+02 -2.152269e+01 -1.390475e+01
      endloop
   endfacet
   facet normal 0.000000e+00 0.000000e+00 -1.000000e+00
      outer loop
         vertex -1.189889e+02 -2.152269e+01 -1.390475e+01
         vertex -2.677193e+02 -2.600557e+01 -1.390475e+01
         vertex -1.186482e+02 -1.893450e+01 -1.390475e+01
      endloop
   endfacet
   facet normal 0.000000e+00 0.000000e+00 -1.000000e+00
      outer loop
         vertex -2.677193e+02 -2.600557e+01 -1.390475e+01
         vertex -2.693084e+02 -2.393450e+01 -1.390475e+01
         vertex -1.186482e+02 -1.893450e+01 -1.390475e+01
      endloop
   endfacet
   facet normal 0.000000e+00 0.000000e+00 -1.000000e+00
      outer loop
         vertex -1.186482e+02 -1.893450e+01 -1.390475e+01
         vertex -2.693084e+02 -2.393450e+01 -1.390475e+01
         vertex -1.186482e+02 4.206550e+01 -1.390475e+01
      endloop
   endfacet
   facet normal 0.000000e+00 0.000000e+00 -1.000000e+00
      outer loop
         vertex -2.693084e+02 -2.393450e+01 -1.390475e+01
         vertex -2.703075e+02 -2.152269e+01 -1.390475e+01
         vertex -1.186482e+02 4.206550e+01 -1.390475e+01
      endloop
   endfacet
   facet normal 0.000000e+00 0.000000e+00 -1.000000e+00
      outer loop
         vertex -1.186482e+02 4.206550e+01 -1.390475e+01
         vertex -2.703075e+02 -2.152269e+01 -1.390475e+01
         vertex -1.189889e+02 4.465369e+01 -1.390475e+01
      endloop
   endfacet
   facet normal 0.000000e+00 0.000000e+00 -1.000000e+00
      outer loop
         vertex -2.703075e+02 -2.152269e+01 -1.390475e+01
         vertex -2.706482e+02 -1.893450e+01 -1.390475e+01
         vertex -1.189889e+02 4.465369e+01 -1.390475e+01
      endloop
   endfacet
   facet normal 0.000000e+00 0.000000e+00 -1.000000e+00
      outer loop
         vertex -1.189889e+02 4.465369e+01 -1.390475e+01
         vertex -2.706482e+02 -1.893450e+01 -1.390475e+01
         vertex -1.199879e+02 4.706550e+01 -1.390475e+01
      endloop
   endfacet
   facet normal 0.000000e+00 0.000000e+00 -1.000000e+00
      outer loop
         vertex -2.706482e+02 -1.893450e+01 -1.390475e+01
         vertex -2.706482e+02 4.206550e+01 -1.390475e+01
         vertex -1.199879e+02 4.706550e+01 -1.390475e+01
      endloop
   endfacet
   facet normal 0.000000e+00 0.000000e+00 -1.000000e+00
      outer loop
         vertex -1.199879e+02 4.706550e+01 -1.390475e+01
         vertex -2.706482e+02 4.206550e+01 -1.390475e+01
         vertex -1.215771e+02 4.913657e+01 -1.390475e+01
      endloop
   endfacet
   facet normal 0.000000e+00 -0.000000e+00 -1.000000e+00
      outer loop
         vertex -2.706482e+02 4.206550e+01 -1.390475e+01
         vertex -2.703075e+02 4.465369e+01 -1.390475e+01
         vertex -1.215771e+02 4.913657e+01 -1.390475e+01
      endloop
   endfacet
   facet normal 0.000000e+00 0.000000e+00 -1.000000e+00
      outer loop
         vertex -1.215771e+02 4.913657e+01 -1.390475e+01
         vertex -2.703075e+02 4.465369e+01 -1.390475e+01
         vertex -1.236482e+02 5.072576e+01 -1.390475e+01
      endloop
   endfacet
   facet normal 0.000000e+00 -0.000000e+00 -1.000000e+00
      outer loop
         vertex -2.703075e+02 4.465369e+01 -1.390475e+01
         vertex -2.693084e+02 4.706550e+01 -1.390475e+01
         vertex -1.236482e+02 5.072576e+01 -1.390475e+01
      endloop
   endfacet
   facet normal 0.000000e+00 0.000000e+00 -1.000000e+00
      outer loop
         vertex -1.236482e+02 5.072576e+01 -1.390475e+01
         vertex -2.693084e+02 4.706550e+01 -1.390475e+01
         vertex -1.260600e+02 5.172476e+01 -1.390475e+01
      endloop
   endfacet
   facet normal 0.000000e+00 -0.000000e+00 -1.000000e+00
      outer loop
         vertex -2.693084e+02 4.706550e+01 -1.390475e+01
         vertex -2.677193e+02 4.913657e+01 -1.390475e+01
         vertex -1.260600e+02 5.172476e+01 -1.390475e+01
      endloop
   endfacet
   facet normal 0.000000e+00 0.000000e+00 -1.000000e+00
      outer loop
         vertex -1.260600e+02 5.172476e+01 -1.390475e+01
         vertex -2.677193e+02 4.913657e+01 -1.390475e+01
         vertex -1.286482e+02 5.206550e+01 -1.390475e+01
      endloop
   endfacet
   facet normal 0.000000e+00 -0.000000e+00 -1.000000e+00
      outer loop
         vertex -2.677193e+02 4.913657e+01 -1.390475e+01
         vertex -2.656482e+02 5.072576e+01 -1.390475e+01
         vertex -1.286482e+02 5.206550e+01 -1.390475e+01
      endloop
   endfacet
   facet normal 0.000000e+00 0.000000e+00 -1.000000e+00
      outer loop
         vertex -1.286482e+02 5.206550e+01 -1.390475e+01
         vertex -2.656482e+02 5.072576e+01 -1.390475e+01
         vertex -2.606482e+02 5.206550e+01 -1.390475e+01
      endloop
   endfacet
   facet normal 0.000000e+00 -0.000000e+00 -1.000000e+00
      outer loop
         vertex -2.656482e+02 5.072576e+01 -1.390475e+01
         vertex -2.632364e+02 5.172476e+01 -1.390475e+01
         vertex -2.606482e+02 5.206550e+01 -1.390475e+01
      endloop
   endfacet
endsolid
